<mxfile host="app.diagrams.net" modified="2022-02-13T18:41:59.948Z" agent="5.0 (Macintosh; Intel Mac OS X 10_15_7) AppleWebKit/537.36 (KHTML, like Gecko) Chrome/98.0.4758.87 Safari/537.36" etag="7usBqEH2rctpTMw8goxG" version="16.5.6" type="github">
  <diagram id="c3sCSQ06Wbr_kNeRU9yB" name="Page-1">
    <mxGraphModel dx="1113" dy="765" grid="1" gridSize="10" guides="1" tooltips="1" connect="1" arrows="1" fold="1" page="1" pageScale="1" pageWidth="827" pageHeight="1169" math="0" shadow="0">
      <root>
        <mxCell id="0" />
        <mxCell id="1" parent="0" />
        <mxCell id="E0CWgeNktAyz96sS9847-4" value="" style="edgeStyle=orthogonalEdgeStyle;rounded=0;orthogonalLoop=1;jettySize=auto;html=1;" edge="1" parent="1" source="E0CWgeNktAyz96sS9847-1" target="E0CWgeNktAyz96sS9847-3">
          <mxGeometry relative="1" as="geometry" />
        </mxCell>
        <mxCell id="E0CWgeNktAyz96sS9847-1" value="user signs up" style="rounded=1;whiteSpace=wrap;html=1;" vertex="1" parent="1">
          <mxGeometry x="330" y="140" width="120" height="60" as="geometry" />
        </mxCell>
        <mxCell id="E0CWgeNktAyz96sS9847-6" value="" style="edgeStyle=orthogonalEdgeStyle;rounded=0;orthogonalLoop=1;jettySize=auto;html=1;" edge="1" parent="1" source="E0CWgeNktAyz96sS9847-3" target="E0CWgeNktAyz96sS9847-5">
          <mxGeometry relative="1" as="geometry" />
        </mxCell>
        <mxCell id="E0CWgeNktAyz96sS9847-3" value="we ask for the user&#39;s telegram username on whale watcher and store it in db." style="whiteSpace=wrap;html=1;rounded=1;" vertex="1" parent="1">
          <mxGeometry x="330" y="280" width="120" height="60" as="geometry" />
        </mxCell>
        <mxCell id="E0CWgeNktAyz96sS9847-8" value="" style="edgeStyle=orthogonalEdgeStyle;rounded=0;orthogonalLoop=1;jettySize=auto;html=1;" edge="1" parent="1" source="E0CWgeNktAyz96sS9847-5" target="E0CWgeNktAyz96sS9847-7">
          <mxGeometry relative="1" as="geometry" />
        </mxCell>
        <mxCell id="E0CWgeNktAyz96sS9847-5" value="we ask user to /start the telegram bot." style="whiteSpace=wrap;html=1;rounded=1;" vertex="1" parent="1">
          <mxGeometry x="330" y="420" width="120" height="60" as="geometry" />
        </mxCell>
        <mxCell id="E0CWgeNktAyz96sS9847-10" value="" style="edgeStyle=orthogonalEdgeStyle;rounded=0;orthogonalLoop=1;jettySize=auto;html=1;" edge="1" parent="1" source="E0CWgeNktAyz96sS9847-7" target="E0CWgeNktAyz96sS9847-9">
          <mxGeometry relative="1" as="geometry" />
        </mxCell>
        <mxCell id="E0CWgeNktAyz96sS9847-7" value="bot will send a welcome message" style="whiteSpace=wrap;html=1;rounded=1;" vertex="1" parent="1">
          <mxGeometry x="330" y="560" width="120" height="60" as="geometry" />
        </mxCell>
        <mxCell id="E0CWgeNktAyz96sS9847-9" value="we store the user&#39;s chat_id in the db by matching the user with the username" style="whiteSpace=wrap;html=1;rounded=1;" vertex="1" parent="1">
          <mxGeometry x="330" y="700" width="120" height="60" as="geometry" />
        </mxCell>
      </root>
    </mxGraphModel>
  </diagram>
</mxfile>
